PathFileType	4	(X/Y/Z)	C:\Users\WrightLab\Desktop\Jo\P5V211.trc
DataRate	CameraRate	NumFrames	NumMarkers	Units	OrigDataRate	OrigDataStartFrame	OrigNumFrames
100.00	100.00	       14	19	mm	100.00	189	       754
Frame#	Time	Headset_Front			Headset_Back			Headset_Left			Headset_Right			Left_Shoulder			Right_Shoulder			Sternum			C7			Left Elbow			Right Elbow			Left Wrist			Right Wrist			Left ASIS			Right ASIS			S2			Left Knee			Right Knee			Left Ankle			Right Ankle			
		X1	Y1	Z1	X2	Y2	Z2	X3	Y3	Z3	X4	Y4	Z4	X5	Y5	Z5	X6	Y6	Z6	X7	Y7	Z7	X8	Y8	Z8	X9	Y9	Z9	X10	Y10	Z10	X11	Y11	Z11	X12	Y12	Z12	X13	Y13	Z13	X14	Y14	Z14	X15	Y15	Z15	X16	Y16	Z16	X17	Y17	Z17	X18	Y18	Z18	X19	Y19	Z19	

189	1.880										-271.71228	1584.00537	-1196.66638																-470.99609	1163.34412	-1379.64966	66.28680	939.09064	-1274.12354	-415.39636	1038.43372	-1183.91443				-313.78952	929.14117	-1258.84119				-11.60413	466.53223	-1311.57874	-388.84341	469.19714	-1332.66907							
190	1.890										-271.07806	1583.60840	-1196.04932																-470.69931	1163.42749	-1378.80896	66.83610	939.04626	-1273.77820	-414.82504	1038.06555	-1183.24158				-312.67358	929.11139	-1258.99976				-9.85821	466.09573	-1314.34277	-389.08307	469.74191	-1332.84717							
191	1.900										-270.48309	1583.15039	-1195.15894																-470.34189	1163.46240	-1377.90710	67.74302	938.93835	-1273.46545	-414.41907	1038.19824	-1181.16699				-311.38461	929.40991	-1258.33459				-9.59545	466.71140	-1312.73987	-387.54028	468.92087	-1331.40881							
192	1.910										-269.91254	1582.65186	-1194.08154																-469.98315	1163.49402	-1377.07324	68.18774	938.98499	-1273.23816	-413.99765	1037.95557	-1180.70740				-310.44443	929.05859	-1257.54382				-8.96007	466.40445	-1312.04797	-387.31296	469.14920	-1330.79309							
193	1.920										-269.28995	1582.22485	-1193.07666																-469.47208	1162.90906	-1374.83679	68.70457	939.05981	-1272.97266	-413.75851	1038.05249	-1178.97693				-310.26212	929.28296	-1256.34021				-8.11390	466.15225	-1312.96741	-386.70822	469.27725	-1330.21411							
194	1.930										-268.67535	1581.79980	-1192.29565																-468.98782	1162.91187	-1373.75879	69.17634	939.11060	-1272.79041	-413.53952	1038.29382	-1177.46582				-309.99908	929.65594	-1255.76819				-6.03438	464.56790	-1316.32117	-385.18042	469.42123	-1329.02991							
195	1.940										-267.89520	1581.49060	-1190.78442																-468.34351	1162.52295	-1372.13770	70.01134	939.12036	-1272.68359	-412.77148	1037.43872	-1176.51819				-309.22018	929.05774	-1254.87573				-5.43798	465.69315	-1312.63892	-383.30756	469.93246	-1327.07214							
196	1.950										-267.29865	1581.21375	-1189.83508																-467.84702	1162.09485	-1370.75452	70.82718	938.86438	-1271.96509	-412.27484	1036.92004	-1174.16174				-308.00528	928.90570	-1254.36707				-4.56480	465.73462	-1310.46533	-381.79974	470.46271	-1324.48413							
197	1.960										-266.57632	1580.82568	-1188.03809																-467.64603	1161.69031	-1369.03540	71.66988	938.66949	-1271.38293	-412.13501	1037.06567	-1173.44153				-305.57855	927.78607	-1252.96985				-4.03221	466.66235	-1307.16711	-378.14838	469.23727	-1322.80237							
198	1.970										-265.97055	1580.48145	-1187.23560																-467.48154	1161.36731	-1367.45691	72.68697	939.13031	-1271.90894	-411.87326	1037.54944	-1171.48987				-304.70065	927.97662	-1252.46179				-2.76455	466.24615	-1307.83167	-375.02728	469.56705	-1319.56189							
199	1.980										-265.18210	1580.20532	-1185.61755																-466.74155	1160.80212	-1365.97131	73.19686	939.18329	-1271.61670	-411.71567	1037.35547	-1171.24170				-304.51785	928.22217	-1251.71570				-2.60627	466.41064	-1306.83777	-372.67896	468.75906	-1317.29333							
200	1.990										-264.49716	1579.69958	-1184.31140																-466.36670	1160.76794	-1365.39673	74.15988	939.08801	-1271.38977	-410.48956	1037.27808	-1169.31287				-303.15955	927.16211	-1250.30933				-1.86018	466.33450	-1307.21948	-368.11594	468.98279	-1313.53882							
201	2.000										-263.83401	1579.51062	-1183.23730																-465.96637	1160.62061	-1364.60266	74.73668	939.06464	-1271.25464	-409.97873	1037.19458	-1168.00000				-302.01990	927.02399	-1249.52722				-1.13219	465.72549	-1307.64172	-364.56473	469.56744	-1310.13391							
202	2.010										-263.16205	1578.92908	-1181.39954																-465.35641	1160.06238	-1363.29065	75.45625	938.96289	-1270.60706	-408.71445	1036.97278	-1166.22864				-300.82230	926.48749	-1248.12317				-0.13219	463.70593	-1308.48132	-359.98328	469.29083	-1306.41858				-358.79330	75.68018	-1414.67664	
